<svg xmlns="http://www.w3.org/2000/svg" width="22" height="24" viewBox="0 0 22 24" fill="none"><script xmlns=""/>
<path d="M7.4375 13.5C7.71875 13.5 8 13.2656 8 12.9375V11.0625C8 10.7812 7.71875 10.5 7.4375 10.5H5.5625C5.23438 10.5 5 10.7812 5 11.0625V12.9375C5 13.2656 5.23438 13.5 5.5625 13.5H7.4375ZM12.5 12.9375V11.0625C12.5 10.7812 12.2188 10.5 11.9375 10.5H10.0625C9.73438 10.5 9.5 10.7812 9.5 11.0625V12.9375C9.5 13.2656 9.73438 13.5 10.0625 13.5H11.9375C12.2188 13.5 12.5 13.2656 12.5 12.9375ZM17 12.9375V11.0625C17 10.7812 16.7188 10.5 16.4375 10.5H14.5625C14.2344 10.5 14 10.7812 14 11.0625V12.9375C14 13.2656 14.2344 13.5 14.5625 13.5H16.4375C16.7188 13.5 17 13.2656 17 12.9375ZM12.5 17.4375V15.5625C12.5 15.2812 12.2188 15 11.9375 15H10.0625C9.73438 15 9.5 15.2812 9.5 15.5625V17.4375C9.5 17.7656 9.73438 18 10.0625 18H11.9375C12.2188 18 12.5 17.7656 12.5 17.4375ZM8 17.4375V15.5625C8 15.2812 7.71875 15 7.4375 15H5.5625C5.23438 15 5 15.2812 5 15.5625V17.4375C5 17.7656 5.23438 18 5.5625 18H7.4375C7.71875 18 8 17.7656 8 17.4375ZM17 17.4375V15.5625C17 15.2812 16.7188 15 16.4375 15H14.5625C14.2344 15 14 15.2812 14 15.5625V17.4375C14 17.7656 14.2344 18 14.5625 18H16.4375C16.7188 18 17 17.7656 17 17.4375ZM21.5 5.25C21.5 4.03125 20.4688 3 19.25 3H17V0.5625C17 0.28125 16.7188 0 16.4375 0H14.5625C14.2344 0 14 0.28125 14 0.5625V3H8V0.5625C8 0.28125 7.71875 0 7.4375 0H5.5625C5.23438 0 5 0.28125 5 0.5625V3H2.75C1.48438 3 0.5 4.03125 0.5 5.25V21.75C0.5 23.0156 1.48438 24 2.75 24H19.25C20.4688 24 21.5 23.0156 21.5 21.75V5.25ZM19.25 21.4688C19.25 21.6562 19.1094 21.75 18.9688 21.75H3.03125C2.84375 21.75 2.75 21.6562 2.75 21.4688V7.5H19.25V21.4688Z" fill="#D8DCE9"/>
</svg>