<?xml version="1.0" ?><svg id="Calque_1" style="enable-background:new 0 0 512 512;" version="1.1" viewBox="0 0 512 512" xml:space="preserve" xmlns="http://www.w3.org/2000/svg" xmlns:xlink="http://www.w3.org/1999/xlink"><style type="text/css">
	.st0{fill:#6F707E;}
</style><path class="st0" d="M512,256c0-75.8-33.1-144-85.6-190.9c0,0,0,0,0,0c-0.7-0.7-1.4-1.4-2.2-1.9  C379.2,23.9,320.3,0,256,0C191.6,0,132.6,24,87.5,63.4c-0.5,0.4-1.1,0.9-1.5,1.4C33.3,111.7,0,180,0,256  c0,75.7,33.1,143.9,85.5,190.8c0,0,0,0.1,0.1,0.1c0.7,0.8,1.4,1.4,2.2,2c45,39.3,103.9,63.1,168.2,63.1  c64.4,0,123.4-23.9,168.4-63.4c0.6-0.4,1.1-0.9,1.7-1.5C478.8,400.2,512,331.9,512,256z M416.8,422.5  c-13.2-10.6-27.3-19.9-42.1-27.6c12.8-36.6,20.5-79.8,21.7-126.7h90.9C484.1,328.6,457.7,383,416.8,422.5z M268.2,390.4  c25.9,1.4,51.2,7,75,16.7c-18.9,43.1-45.5,72.7-75,79.2V390.4z M268.2,366v-97.8H372c-1.2,42.5-8.4,82.4-20,116.2  C325.5,373.6,297.2,367.4,268.2,366z M268.2,243.8V146c29-1.4,57.3-7.6,83.8-18.4c11.6,33.8,18.8,73.7,20,116.2H268.2z M268.2,121.6  V25.7c29.5,6.5,56.1,36,75,79.2C319.4,114.5,294.1,120.2,268.2,121.6z M329.1,36.2c25.2,8.4,48.5,21,69,37  c-10.2,8-21.1,15-32.4,21.1C355.5,71.2,343.1,51.5,329.1,36.2z M243.8,25.7v95.9c-25.9-1.4-51.3-7-75-16.7  C187.7,61.8,214.3,32.2,243.8,25.7z M146.3,94.3c-11.3-6.1-22.1-13.1-32.4-21.1c20.5-16,43.8-28.6,69-37  C168.9,51.5,156.5,71.2,146.3,94.3z M243.8,146v97.8H140c1.2-42.5,8.4-82.4,20-116.2C186.5,138.4,214.8,144.6,243.8,146z   M243.8,268.2V366c-29,1.4-57.3,7.6-83.8,18.4c-11.6-33.8-18.8-73.7-20-116.2H243.8z M243.8,390.4v95.9c-29.5-6.5-56.1-36-75-79.2  C192.6,397.5,217.9,391.8,243.8,390.4z M183,475.8c-25.2-8.4-48.5-21-69-37c10.2-8,21.1-15,32.4-21.1  C156.5,440.8,168.9,460.5,183,475.8z M365.7,417.7c11.3,6.1,22.1,13.1,32.4,21.1c-20.5,16-43.8,28.6-69,37  C343.1,460.5,355.5,440.8,365.7,417.7z M487.3,243.8h-90.9c-1.2-46.9-8.9-90.1-21.7-126.7c14.8-7.8,28.9-17,42.1-27.6  C457.7,129,484.1,183.4,487.3,243.8z M95.2,89.5c13.2,10.6,27.3,19.9,42.1,27.6c-12.8,36.6-20.5,79.8-21.7,126.7H24.7  C27.9,183.4,54.3,129,95.2,89.5z M24.7,268.2h90.9c1.2,46.9,8.9,90.1,21.7,126.7c-14.8,7.8-28.9,17-42.1,27.6  C54.3,383,27.9,328.6,24.7,268.2z" id="XMLID_13_"/></svg>