<svg xmlns="http://www.w3.org/2000/svg" xmlns:xlink="http://www.w3.org/1999/xlink" id="Layer_1" x="0px" y="0px" viewBox="0 0 547.9 138.7" style="enable-background:new 0 0 547.9 138.7;" xml:space="preserve"><style type="text/css">	.st0{fill:#151515;}	.st1{fill:#DC393D;}	.st2{fill:#FFFFFF;}</style><g>	<path class="st0" d="M163.9,53.8h5.4l15.2,35.4h-7.2l-3.3-8.1h-15.3l-3.2,8.1h-7L163.9,53.8z M171.9,75.7l-5.4-14.4L161,75.7H171.9  z M191.3,53.8h7.2l9.6,26.7l9.9-26.7h6.7l-14.2,35.4h-5.4L191.3,53.8z M247.2,53.8h5.4l15.2,35.4h-7.2l-3.3-8.1H242l-3.2,8.1h-7  L247.2,53.8z M255.1,75.7l-5.4-14.4l-5.5,14.4H255.1z M281.7,53.8h6.3v29.6h15v5.7h-21.3V53.8L281.7,53.8z M328.8,53.8h5.4  l15.2,35.4h-7.2l-3.3-8.1h-15.3l-3.2,8.1h-7L328.8,53.8z M336.8,75.7l-5.4-14.4l-5.5,14.4H336.8z M363.3,53.8h8.3l17.1,26.3h0.1  V53.8h6.3v35.4h-8l-17.4-27.1h-0.1v27.1h-6.3V53.8z M437.1,62.1c-1.3-1.4-2.6-2.3-3.8-2.8c-1.2-0.5-2.4-0.7-3.6-0.7  c-1.8,0-3.5,0.3-5,1c-1.5,0.6-2.7,1.5-3.8,2.7c-1.1,1.1-1.9,2.5-2.5,4s-0.8,3.2-0.8,4.9c0,1.9,0.3,3.6,0.8,5.2  c0.6,1.6,1.4,3,2.5,4.2s2.3,2.1,3.8,2.7c1.5,0.7,3.2,1,5,1c1.4,0,2.8-0.3,4.1-1c1.4-0.7,2.6-1.8,3.8-3.3l5.2,3.7  c-1.6,2.2-3.5,3.8-5.8,4.8s-4.7,1.5-7.3,1.5c-2.7,0-5.2-0.4-7.5-1.3s-4.2-2.1-5.9-3.8c-1.6-1.6-2.9-3.6-3.8-5.8  c-0.9-2.3-1.4-4.8-1.4-7.5c0-2.8,0.5-5.4,1.4-7.7s2.2-4.3,3.8-6c1.7-1.6,3.6-2.9,5.9-3.8c2.3-0.9,4.8-1.4,7.5-1.4  c2.4,0,4.6,0.4,6.6,1.3c2.1,0.8,4,2.3,5.7,4.3L437.1,62.1z M456.9,53.8h6.3v14.1h16.5V53.8h6.3v35.4h-6.3V73.6h-16.5v15.6h-6.3  V53.8z M503.8,53.8h23.3v5.7H510v8.7h16.2v5.7H510v9.6h18v5.7h-24.2V53.8z"></path>	<g>		<circle class="st1" cx="67.2" cy="71.5" r="51.2"></circle>		<g>			<path class="st2" d="M51.3,92.4H38.9c-2.9,0-4.4,0-5.3-0.6c-1-0.6-1.6-1.7-1.6-2.8c-0.1-1,0.7-2.3,2.1-4.9l27.2-47.8    c1.5-2.6,2.2-3.9,3.2-4.4c1-0.5,2.2-0.5,3.2,0c0.9,0.5,1.7,1.8,3.2,4.4l6.3,11c1.1,1.9,1.6,2.8,1.8,3.8c0.3,1.1,0.3,2.2,0,3.3    c-0.2,1-0.8,1.9-1.8,3.8L60.8,86.8c-1.1,1.9-1.6,2.9-2.4,3.6c-0.8,0.8-1.8,1.4-2.9,1.7C54.6,92.4,53.5,92.4,51.3,92.4z"></path>			<path class="st2" d="M95.6,92.4H81.2c-3,0-4.4,0-5.3-0.6c-1-0.6-1.6-1.7-1.6-2.8c-0.1-1.1,0.7-2.3,2.2-4.9l7.2-12.4    c1.5-2.5,2.2-3.8,3.1-4.3c1-0.5,2.2-0.5,3.2,0c0.9,0.5,1.7,1.7,3.2,4.3l7.2,12.4c1.5,2.6,2.3,3.9,2.2,4.9    c-0.1,1.1-0.7,2.2-1.6,2.8C100,92.4,98.5,92.4,95.6,92.4z"></path>		</g>	</g></g></svg>