<svg xmlns="http://www.w3.org/2000/svg" xmlns:xlink="http://www.w3.org/1999/xlink" id="Layer_1" x="0px" y="0px" viewBox="0 0 547.9 138.7" style="enable-background:new 0 0 547.9 138.7;" xml:space="preserve"><style type="text/css">	.st0{fill:#2F3144;}	.st1{fill:#1C1E32;}	.st2{fill:#71738A;}	.st3{fill:#B5B7C4;}	.st4{fill-rule:evenodd;clip-rule:evenodd;}</style><g>	<g>		<circle class="st0" cx="74.6" cy="69.4" r="57.9"></circle>		<circle class="st1" cx="74.6" cy="69.4" r="33.6"></circle>		<path class="st2" d="M74.7,18.8c-6.3,0-11.3,22.7-11.3,50.7s5.1,50.7,11.3,50.7S86,97.5,86,69.5S80.9,18.8,74.7,18.8z M75.5,117.3   c-0.2,0.4-0.7,0.6-1.2,0.4c-0.1,0-0.2-0.1-0.2-0.2c-2.1-2.9-3.5-6.1-4.3-9.6c-5-16.2-3.8-51-3.8-51c2.3-27.6,6.6-34.1,8.1-35.6   c0.3-0.3,0.8-0.3,1.1-0.1c2.1,1.5,3.9,7.8,3.9,7.8c3.2,12.4,4.8,25.1,4.8,37.9c0.1,11.3-0.8,22.7-2.6,33.9   C78.8,114.5,75.5,117.3,75.5,117.3z"></path>		<path class="st2" d="M118.6,44.3c-3.1-5.4-25.3,1.5-49.6,15.4s-41.4,29.6-38.3,35c3.1,5.4,25.3-1.5,49.6-15.4   S121.7,49.7,118.6,44.3z M33.6,94c-1.2-0.2-0.9-1.1-0.9-1.1c1.5-3.2,3.5-6.1,6.1-8.5c11.6-12.4,42.4-28.8,42.4-28.8   c25.1-11.7,33-11.2,34.9-10.7c0.4,0.1,0.7,0.5,0.6,1c-0.2,2.6-4.8,7.3-4.8,7.3c-9.1,9-19.4,16.7-30.5,23   c-9.8,5.7-20.1,10.6-30.7,14.6C37.8,95.4,33.6,93.9,33.6,94L33.6,94z"></path>		<path class="st2" d="M118.5,94.9c3.1-5.4-14-21.2-38.1-35.2S34,38.7,30.8,44.1c-3.1,5.4,14,21.2,38.2,35.2S115.4,100.3,118.5,94.9   z M32.9,46.2c-0.3-0.4-0.1-1,0.3-1.3c0.1,0,0.2-0.1,0.2-0.1c3.5-0.3,7,0,10.4,1c16.6,3.8,46.1,22.3,46.1,22.3   C112.6,84,116.1,91,116.7,93c0.1,0.4-0.1,0.9-0.5,1c-2.9,0.5-5.9,0.3-8.7-0.5c-12.3-3.4-24.2-8.4-35.2-14.9   c-9.9-5.6-19.2-12-28-19.2C33.7,50.5,32.9,46.2,32.9,46.2L32.9,46.2z"></path>		<circle class="st3" cx="74.6" cy="69.4" r="6"></circle>		<ellipse class="st3" cx="99" cy="46.5" rx="3.5" ry="3.6"></ellipse>		<ellipse class="st3" cx="42.2" cy="58.6" rx="3.5" ry="3.6"></ellipse>		<ellipse class="st3" cx="67.5" cy="102.5" rx="3.5" ry="3.6"></ellipse>	</g>	<path class="st4" d="M201.6,84.7l-5.1-5.2c-1.8,1.7-3.7,3.1-5.9,4.3c-2.2,1.1-4.6,1.6-7.1,1.6c-2.1,0-4.1-0.4-6-1.3  c-1.8-0.8-3.4-2-4.7-3.4c-1.3-1.5-2.4-3.3-3.1-5.2c-0.7-2-1.1-4.1-1.1-6.3c0-2.1,0.3-4.2,1.1-6.2c0.7-1.9,1.7-3.6,3.1-5.1  c1.3-1.4,2.9-2.6,4.7-3.4c1.9-0.8,3.9-1.3,6-1.3c2.4,0,4.8,0.5,6.9,1.5c2.1,1.1,4,2.4,5.7,4.1l5.1-5.9c-1.1-1-2.2-2-3.4-2.8  c-1.2-0.9-2.5-1.6-3.9-2.2c-1.5-0.7-3.1-1.2-4.7-1.5c-1.9-0.4-3.7-0.5-5.6-0.5c-3.2,0-6.4,0.6-9.4,1.8c-5.6,2.4-9.9,6.8-12.1,12.5  c-1.1,2.9-1.7,6-1.7,9.1c0,3.1,0.6,6.2,1.7,9.1c1.1,2.7,2.7,5.2,4.8,7.4c2.1,2.1,4.5,3.8,7.2,4.9c2.9,1.2,6,1.8,9.1,1.8  c1.9,0,3.9-0.2,5.8-0.5c1.7-0.3,3.3-0.9,4.8-1.6c1.4-0.7,2.8-1.5,4.1-2.5C199.2,86.9,200.5,85.8,201.6,84.7"></path>	<path class="st4" d="M303.8,58.6c0-1.5,0.7-2.9,1.9-3.8c1.6-1.1,3.5-1.7,5.4-1.6c2.1,0,4.2,0.4,6.1,1.2c2.2,0.9,4.2,2,6.1,3.4  l4.2-6c-2.2-1.8-4.7-3.2-7.4-4.2c-2.8-1-5.8-1.5-8.8-1.5c-2.1,0-4.2,0.3-6.1,0.9c-1.8,0.6-3.4,1.5-4.8,2.7  c-1.3,1.2-2.4,2.6-3.1,4.1c-0.8,1.7-1.2,3.5-1.1,5.4c-0.1,1.8,0.3,3.6,1,5.3c0.7,1.5,1.7,2.7,2.9,3.7c1.4,1.1,3,2,4.7,2.6  c2.1,0.7,4.2,1.4,6.4,1.9c2.1,0.5,3.8,1,5.1,1.5c1.1,0.4,2.1,0.9,3.1,1.5c0.7,0.4,1.2,1,1.5,1.8c0.3,0.7,0.4,1.5,0.4,2.2  c0,1.7-0.8,3.2-2.1,4.2c-1.7,1.1-3.7,1.7-5.8,1.5c-2.6,0-5.2-0.5-7.6-1.5c-2.4-1.1-4.6-2.6-6.6-4.3l-4.7,5.7  c2.6,2.4,5.5,4.2,8.8,5.4c3.2,1.2,6.5,1.8,9.9,1.8c2.2,0,4.4-0.3,6.5-0.9c1.8-0.5,3.5-1.4,5-2.6c1.4-1.2,2.5-2.6,3.3-4.2  c0.8-1.8,1.2-3.7,1.2-5.7c0-1.7-0.3-3.4-0.9-4.9c-0.6-1.4-1.6-2.7-2.7-3.7c-1.3-1.1-2.9-2-4.5-2.7c-2-0.8-4.1-1.5-6.3-2  c-2.1-0.5-3.9-1-5.3-1.5c-1.2-0.4-2.3-0.9-3.3-1.5c-0.7-0.4-1.3-1.1-1.6-1.8C303.9,60.2,303.8,59.4,303.8,58.6"></path>	<path class="st4" d="M391.5,59.7v32.1h7.8V47h-8.4l-13.7,21.2L363.6,47h-8.4v44.8h7.8v-32l14,21h0.3L391.5,59.7"></path>	<path class="st4" d="M465.1,69.4c0,2.1-0.4,4.2-1.1,6.2c-0.7,1.9-1.8,3.6-3.1,5.1c-1.3,1.5-3,2.6-4.8,3.4c-3.9,1.7-8.4,1.7-12.3,0  c-1.8-0.8-3.5-2-4.8-3.5c-1.4-1.5-2.4-3.2-3.2-5.2c-1.5-4-1.5-8.4,0-12.4c0.7-1.9,1.8-3.6,3.1-5.1c1.3-1.5,3-2.6,4.8-3.4  c1.9-0.8,4-1.3,6.1-1.3c2.1,0,4.2,0.4,6.2,1.3c1.8,0.8,3.5,2,4.8,3.5c1.4,1.5,2.4,3.2,3.1,5.2C464.7,65.2,465.1,67.3,465.1,69.4z   M473.3,69.3c0-3.1-0.6-6.2-1.7-9c-1.1-2.8-2.7-5.3-4.8-7.4c-2.1-2.1-4.6-3.8-7.4-5c-3-1.2-6.2-1.9-9.5-1.8  c-6.4-0.1-12.5,2.4-17,6.9c-2.1,2.1-3.8,4.7-4.9,7.4c-2.3,5.8-2.3,12.2,0,18c2.2,5.6,6.6,10.1,12.2,12.4c3,1.2,6.3,1.9,9.5,1.8  c6.4,0.1,12.5-2.4,17-6.9c2.1-2.1,3.8-4.7,4.9-7.4C472.8,75.5,473.4,72.4,473.3,69.3L473.3,69.3z"></path>	<path class="st4" d="M506.2,58.6c0-1.5,0.7-2.9,1.9-3.8c1.6-1.1,3.5-1.7,5.4-1.6c2.1,0,4.2,0.4,6.1,1.2c2.2,0.9,4.2,2,6.1,3.4  l4.2-6c-2.2-1.8-4.7-3.2-7.4-4.2c-2.8-1-5.9-1.5-8.9-1.5c-2.1,0-4.2,0.3-6.1,0.9c-1.8,0.6-3.4,1.5-4.8,2.7  c-1.3,1.2-2.4,2.6-3.1,4.1c-0.8,1.7-1.2,3.5-1.1,5.4c-0.1,1.8,0.3,3.6,1,5.3c0.7,1.5,1.6,2.7,2.9,3.8c1.4,1.1,3,2,4.7,2.6  c2.1,0.8,4.2,1.4,6.4,1.9c2.1,0.5,3.8,1,5.1,1.5c1.1,0.4,2.1,0.9,3.1,1.5c0.7,0.4,1.2,1,1.5,1.8c0.3,0.7,0.4,1.5,0.4,2.2  c0,1.7-0.8,3.2-2.1,4.2c-1.7,1.1-3.7,1.7-5.8,1.5c-2.6,0-5.2-0.5-7.6-1.5c-2.4-1.1-4.6-2.6-6.6-4.3l-4.7,5.7  c2.6,2.4,5.5,4.2,8.8,5.4c3.2,1.2,6.5,1.8,9.9,1.8c2.2,0,4.4-0.3,6.5-0.9c1.8-0.5,3.5-1.4,5-2.6c1.4-1.2,2.5-2.6,3.3-4.2  c0.8-1.8,1.2-3.7,1.2-5.7c0-1.7-0.3-3.4-0.9-4.9c-0.6-1.4-1.6-2.7-2.7-3.7c-1.3-1.1-2.9-2-4.5-2.7c-2-0.8-4.1-1.5-6.3-2  c-2.1-0.5-3.9-1-5.3-1.5c-1.2-0.4-2.3-0.9-3.3-1.5c-0.7-0.4-1.3-1.1-1.6-1.8C506.3,60.2,506.2,59.4,506.2,58.6"></path>	<path class="st4" d="M255.3,55.8l-21.4,21.4c-0.3-0.5-0.5-1.1-0.7-1.7c-1.5-4-1.5-8.4,0-12.4c0.7-1.9,1.8-3.6,3.1-5.1  c1.3-1.4,3-2.6,4.8-3.4c3.9-1.7,8.4-1.7,12.3,0C254,55,254.7,55.3,255.3,55.8z M253.4,84.1c-3.9,1.7-8.4,1.7-12.3,0  c-0.7-0.3-1.4-0.7-2-1.1l21.4-21.4c0.3,0.5,0.5,1.1,0.7,1.7c1.5,4,1.5,8.4,0,12.4c-0.7,1.9-1.8,3.6-3.1,5.1  C256.8,82.2,255.2,83.3,253.4,84.1z M256.6,90.7c2.8-1.2,5.3-2.9,7.5-5c2.1-2.1,3.8-4.6,4.9-7.4c3.1-7.5,2.1-16-2.5-22.6l14-13.9  l-5.5-5.5l-14,14c-1.3-0.9-2.7-1.6-4.1-2.2c-3-1.2-6.2-1.9-9.5-1.8c-3.3,0-6.5,0.6-9.5,1.9c-2.8,1.2-5.3,2.9-7.5,5  c-2.1,2.1-3.8,4.6-4.9,7.4c-3.1,7.5-2.1,16,2.5,22.6L214,97l5.5,5.5l14-14c1.3,0.9,2.7,1.6,4.1,2.2c3,1.2,6.2,1.9,9.5,1.8  C250.4,92.6,253.7,92,256.6,90.7L256.6,90.7z"></path></g></svg>