<svg xmlns="http://www.w3.org/2000/svg" xmlns:xlink="http://www.w3.org/1999/xlink" id="Layer_1" x="0px" y="0px" viewBox="0 0 547.9 138.7" style="enable-background:new 0 0 547.9 138.7;" xml:space="preserve"><style type="text/css">	.st0{fill:#1600FF;}</style><g>	<path class="st0" d="M99.1,22c2.3-1.2,5.9-1.2,8.3,0l23.9,12.6c1.4,0.8,2.2,1.9,2.3,3l0,0v63.2c0,1.3-0.8,2.5-2.3,3.3l-23.9,12.6  c-2.3,1.2-5.9,1.2-8.3,0l-23.9-12.6c-1.5-0.8-2.3-2-2.3-3.3c0-0.2,0-0.2,0-0.3V38.1c0-0.1,0-0.2,0-0.2v-0.2l0,0  c0.1-1.1,0.8-2.3,2.3-3L99.1,22z M129.8,72.9l-22.5,11.8c-2.3,1.2-5.9,1.2-8.3,0L76.7,72.9v27.8l22.4,11.7c1.3,0.7,2.6,1.4,3.8,1.4  h0.2c1.4,0,2.6-0.7,4-1.3l22.7-12C129.8,100.5,129.8,72.9,129.8,72.9z M69,99.4c0,2.4,0.3,4,0.8,5.1c0.5,0.9,1.1,1.7,2.4,2.5  l0.1,0.1c0.3,0.2,0.6,0.4,1,0.6l0.5,0.3l1.4,0.8l-2,3.2l-1.5-0.9l-0.2-0.2c-0.5-0.3-0.8-0.5-1.1-0.8c-3.7-2.5-5-5.1-5-10.7v-0.2H69  z M101.3,55.9c-0.2,0.1-0.3,0.2-0.5,0.2L76.9,68.6c0,0-0.1,0-0.1,0.1l0,0l0,0h0.1l23.9,12.7c0.2,0.1,0.3,0.2,0.5,0.2  C101.3,81.6,101.3,55.9,101.3,55.9z M105.1,55.9v25.6c0.2-0.1,0.3-0.2,0.5-0.2l23.9-12.6c0,0,0.1,0,0.1-0.1l0,0l0,0h-0.1  l-23.8-12.5C105.4,56.1,105.3,56,105.1,55.9z M129.8,42.1l-21.5,11.3l21.5,11.3V42.1z M76.7,42.1v22.5l21.4-11.2L76.7,42.1z   M105.6,25.3c-1.3-0.7-3.5-0.7-4.7,0L76.9,37.9c0,0-0.1,0-0.1,0.1l0,0l0,0h0.1l23.9,12.6c1.3,0.7,3.5,0.7,4.7,0L129.4,38  c0,0,0.1,0,0.1-0.1l0,0l0,0h-0.1L105.6,25.3z M133.4,26.8l1.5,0.9l0.2,0.2c0.5,0.3,0.8,0.5,1.1,0.8c3.6,2.4,5,5.1,5,10.6v0.2h-3.8  c0-2.4-0.3-4-0.8-5.1c-0.5-0.9-1.1-1.7-2.4-2.5l-0.1-0.1c-0.3-0.2-0.6-0.4-1-0.6l-0.5-0.3l-1.4-0.8L133.4,26.8z"></path>	<path class="st0" d="M200.9,100.1V61.5h10.7v-7.1h-10.7v-5c0-5.8,2.5-8.6,7.5-8.6c1.5,0,3,0.2,4.6,0.7V34c-2-0.6-4.2-0.9-6.6-0.9  c-4.6,0-8.3,1.3-10.8,4c-2.6,2.6-3.9,6.5-3.9,11.6v5.8h-8.8v7.1h8.8v38.7h9.2V100.1z M238,100.7c3.5,0,6.6-0.7,9.2-2.1  c2.6-1.5,4.6-3.6,5.9-6.3v7.8h9.1V54.4h-9.1v7.4c-1.4-2.7-3.4-4.8-6-6.3c-2.6-1.5-5.7-2.2-9.2-2.2c-4,0-7.4,1-10.5,3  c-3.1,2-5.5,4.8-7.2,8.4c-1.7,3.6-2.6,7.8-2.6,12.5c0,4.7,0.8,8.8,2.6,12.4c1.7,3.6,4,6.3,7.1,8.2C230.4,99.7,234,100.7,238,100.7z   M240.3,93.5c-4.2,0-7.4-1.4-9.7-4.3c-2.3-2.8-3.5-6.9-3.5-12c0-5.2,1.2-9.2,3.5-12.2c2.3-2.9,5.5-4.4,9.7-4.4  c4.2,0,7.4,1.4,9.7,4.3c2.2,2.8,3.4,6.9,3.4,12.1c0,5.2-1.2,9.2-3.4,12.1C247.5,92.1,244.3,93.5,240.3,93.5z M284.8,100.1v-26  c0-4,1.2-7.3,3.5-9.7c2.3-2.4,5.5-3.6,9.3-3.6c3.4,0,5.9,0.9,7.4,2.7c1.6,1.8,2.3,4.7,2.3,8.7v27.9h9.2V71.7  c0-12.2-5.5-18.3-16.4-18.3c-3.5,0-6.6,0.7-9.4,2.3c-2.7,1.6-4.9,3.8-6.3,6.7l-0.8-7.9H275c0.5,3.8,0.7,8.1,0.7,12.9v32.8H284.8z   M347.1,100.7c2.6,0,4.8-0.3,6.8-1v-7.4c-1.7,0.5-3.2,0.7-4.8,0.7c-2.4,0-4.3-0.7-5.7-2c-1.3-1.3-2.1-3.6-2.1-6.7V61.5H354v-7.1  h-12.6V39.8l-9.2,3.1v11.4h-8.9v7.1h8.9v23.7c0,5,1.3,8.9,3.9,11.6C338.8,99.4,342.4,100.7,347.1,100.7z M382.2,100.7  c4.4,0,8.3-1,11.7-2.9c3.4-1.9,6-4.7,7.8-8.3c1.8-3.6,2.8-7.8,2.8-12.5c0-4.8-0.9-8.9-2.8-12.6c-1.8-3.6-4.5-6.4-7.8-8.3  c-3.4-1.9-7.3-2.9-11.7-2.9c-4.5,0-8.4,1-11.8,2.9c-3.4,1.9-6,4.7-7.8,8.3c-1.8,3.6-2.8,7.8-2.8,12.6s0.9,8.9,2.8,12.5  c1.8,3.6,4.5,6.3,7.8,8.3C373.8,99.7,377.7,100.7,382.2,100.7z M382.1,93.5c-4.2,0-7.4-1.4-9.7-4.1c-2.2-2.8-3.4-6.9-3.4-12.2  c0-5.3,1.2-9.3,3.5-12.1c2.3-2.8,5.5-4.3,9.7-4.3c4.1,0,7.3,1.4,9.6,4.3c2.2,2.8,3.4,6.9,3.4,12.1c0,5.4-1.2,9.5-3.4,12.2  C389.6,92.1,386.4,93.5,382.1,93.5z M424.3,100.1V74.2c0-4.1,1-7.4,3.1-9.9c2.1-2.4,4.9-3.6,8.3-3.6c3.1,0,5.2,0.9,6.6,2.7  c1.3,1.8,2.1,4.7,2.1,8.6v28h9.2V74.2c0-4.1,1-7.4,3.1-9.9c2.1-2.4,4.8-3.6,8.3-3.6c3.1,0,5.2,0.9,6.6,2.7c1.3,1.8,2.1,4.7,2.1,8.6  v28h9.1V71.7c0-12.2-5.1-18.3-15.3-18.3c-3.4,0-6.4,0.8-9.1,2.4c-2.7,1.6-4.7,3.7-6.1,6.4c-2.1-5.9-6.8-8.8-13.9-8.8  c-3.3,0-6.2,0.7-8.8,2.2c-2.5,1.5-4.4,3.6-5.7,6.4l-0.8-7.6h-8.5c0.5,3.8,0.7,8.1,0.7,12.9v32.8L424.3,100.1L424.3,100.1z"></path></g></svg>