<svg xmlns="http://www.w3.org/2000/svg" xmlns:xlink="http://www.w3.org/1999/xlink" id="Layer_1" x="0px" y="0px" viewBox="0 0 547.9 138.7" style="enable-background:new 0 0 547.9 138.7;" xml:space="preserve"><style type="text/css">	.st0{fill:url(#SVGID_1_);}	.st1{fill:url(#SVGID_00000060719941544920597160000008634449913479450287_);fill-opacity:0.68;}	.st2{fill:url(#SVGID_00000038383233152142790710000016410123184467313077_);fill-opacity:0.2;}	.st3{fill:url(#SVGID_00000132797843841922728970000004654432888682333827_);fill-opacity:3.000000e-02;}	.st4{fill:#FFFFFF;}	.st5{fill:url(#SVGID_00000132794409444533021370000001251781255135846832_);}	.st6{fill:url(#SVGID_00000015339985057533433550000000181294930067729569_);fill-opacity:0.57;}	.st7{fill:url(#SVGID_00000098920001163498717670000015647278985976613781_);fill-opacity:0.68;}	.st8{fill:url(#SVGID_00000043426616800212713460000006038928683142995637_);fill-opacity:8.000000e-02;}	.st9{fill:url(#SVGID_00000049192288569905719150000002267412340016798139_);fill-opacity:3.000000e-02;}</style><g>			<radialGradient id="SVGID_1_" cx="-22.4573" cy="491.4868" r="0.775" gradientTransform="matrix(-151.8531 126.645 152.8262 183.2455 -78471.1641 -87154.5312)" gradientUnits="userSpaceOnUse">		<stop offset="0" style="stop-color:#1973C8"></stop>		<stop offset="1" style="stop-color:#0D25D1"></stop>	</radialGradient>	<path class="st0" d="M190.2,21.7h-53.5c-9.8,0-17.8,8-17.8,17.8V93c0,9.8,8,17.8,17.8,17.8h53.5c9.8,0,17.8-8,17.8-17.8V39.5  C208.1,29.7,200.1,21.7,190.2,21.7z"></path>			<radialGradient id="SVGID_00000102524260764959381940000003380869847916017071_" cx="-24.2563" cy="494.1772" r="0.775" gradientTransform="matrix(-123.6035 3.6382 2.6795 91.0327 -4288.9175 -44917.7891)" gradientUnits="userSpaceOnUse">		<stop offset="0" style="stop-color:#5CA6EB"></stop>		<stop offset="1" style="stop-color:#5CA6EB;stop-opacity:8.418930e-02"></stop>	</radialGradient>	<path style="fill:url(#SVGID_00000102524260764959381940000003380869847916017071_);fill-opacity:0.68;" d="M190.2,21.7h-53.5  c-9.8,0-17.8,8-17.8,17.8V93c0,9.8,8,17.8,17.8,17.8h53.5c9.8,0,17.8-8,17.8-17.8V39.5C208.1,29.7,200.1,21.7,190.2,21.7z"></path>			<radialGradient id="SVGID_00000094605743112494913910000005855944448075093389_" cx="-19.3651" cy="493.2056" r="0.775" gradientTransform="matrix(-32.9724 57.2528 85.833 49.432 -42931.4688 -23243.957)" gradientUnits="userSpaceOnUse">		<stop offset="0" style="stop-color:#FFFFFF"></stop>		<stop offset="0.9996" style="stop-color:#FFFFFF;stop-opacity:0.3299"></stop>	</radialGradient>	<path style="fill:url(#SVGID_00000094605743112494913910000005855944448075093389_);fill-opacity:0.2;" d="M190.2,21.7h-53.5  c-9.8,0-17.8,8-17.8,17.8V93c0,9.8,8,17.8,17.8,17.8h53.5c9.8,0,17.8-8,17.8-17.8V39.5C208.1,29.7,200.1,21.7,190.2,21.7z"></path>			<linearGradient id="SVGID_00000103970057260215548580000000386954041390677938_" gradientUnits="userSpaceOnUse" x1="195.4364" y1="51.6621" x2="111.4443" y2="104.2176" gradientTransform="matrix(1 0 0 -1 0 137.8898)">		<stop offset="0" style="stop-color:#FFFFFF;stop-opacity:0.1849"></stop>		<stop offset="1" style="stop-color:#FFFFFF"></stop>	</linearGradient>	<path style="fill:url(#SVGID_00000103970057260215548580000000386954041390677938_);fill-opacity:3.000000e-02;" d="M190.2,21.7  h-53.5c-9.8,0-17.8,8-17.8,17.8V93c0,9.8,8,17.8,17.8,17.8h53.5c9.8,0,17.8-8,17.8-17.8V39.5C208.1,29.7,200.1,21.7,190.2,21.7z"></path>	<path class="st4" d="M150.3,97.4V69.8l26.1,27.6H191v-0.7l-30-31.5l27.7-29.9v-0.4H174l-23.7,26.4V35.1h-11.8v62.4H150.3z"></path>			<radialGradient id="SVGID_00000002374968132356729540000007234087329439774136_" cx="-22.4012" cy="488.015" r="0.775" gradientTransform="matrix(197.801 0 0 -197.801 4630.9199 96561.2969)" gradientUnits="userSpaceOnUse">		<stop offset="0" style="stop-color:#2F80F2"></stop>		<stop offset="0.9997" style="stop-color:#A942B5"></stop>	</radialGradient>	<path style="fill:url(#SVGID_00000002374968132356729540000007234087329439774136_);" d="M190.2,21.7h-53.5  c-9.8,0-17.8,8-17.8,17.8V93c0,9.8,8,17.8,17.8,17.8h53.5c9.8,0,17.8-8,17.8-17.8V39.5C208.1,29.7,200.1,21.7,190.2,21.7z"></path>			<radialGradient id="SVGID_00000092457772971365467800000015137024493327022523_" cx="-22.2242" cy="487.8506" r="0.775" gradientTransform="matrix(182.974 0 0 -182.974 4185.4019 89287.5703)" gradientUnits="userSpaceOnUse">		<stop offset="0" style="stop-color:#45F9DE"></stop>		<stop offset="1" style="stop-color:#A942B5;stop-opacity:0"></stop>	</radialGradient>	<path style="fill:url(#SVGID_00000092457772971365467800000015137024493327022523_);fill-opacity:0.57;" d="M190.2,21.7h-53.5  c-9.8,0-17.8,8-17.8,17.8V93c0,9.8,8,17.8,17.8,17.8h53.5c9.8,0,17.8-8,17.8-17.8V39.5C208.1,29.7,200.1,21.7,190.2,21.7z"></path>			<radialGradient id="SVGID_00000144324188188077109140000006770327895628754340_" cx="-21.9491" cy="486.7408" r="0.775" gradientTransform="matrix(110.45 0 0 -110.45 2632.3499 53871.332)" gradientUnits="userSpaceOnUse">		<stop offset="0" style="stop-color:#E957C5"></stop>		<stop offset="1" style="stop-color:#A942B5;stop-opacity:0"></stop>	</radialGradient>	<path style="fill:url(#SVGID_00000144324188188077109140000006770327895628754340_);fill-opacity:0.68;" d="M190.2,21.7h-53.5  c-9.8,0-17.8,8-17.8,17.8V93c0,9.8,8,17.8,17.8,17.8h53.5c9.8,0,17.8-8,17.8-17.8V39.5C208.1,29.7,200.1,21.7,190.2,21.7z"></path>			<radialGradient id="SVGID_00000108278015137295449390000007888450670152825998_" cx="-21.0542" cy="484.4486" r="0.775" gradientTransform="matrix(66.2996 0 0 -66.2996 1559.3907 32185)" gradientUnits="userSpaceOnUse">		<stop offset="0" style="stop-color:#000000;stop-opacity:0.1849"></stop>		<stop offset="1" style="stop-color:#101010"></stop>	</radialGradient>	<path style="fill:url(#SVGID_00000108278015137295449390000007888450670152825998_);fill-opacity:8.000000e-02;" d="M190.2,21.7  h-53.5c-9.8,0-17.8,8-17.8,17.8V93c0,9.8,8,17.8,17.8,17.8h53.5c9.8,0,17.8-8,17.8-17.8V39.5C208.1,29.7,200.1,21.7,190.2,21.7z"></path>			<linearGradient id="SVGID_00000119814911952832355150000014341230653909395332_" gradientUnits="userSpaceOnUse" x1="195.4364" y1="51.6621" x2="111.4443" y2="104.2176" gradientTransform="matrix(1 0 0 -1 0 137.8898)">		<stop offset="0" style="stop-color:#FFFFFF;stop-opacity:0.1849"></stop>		<stop offset="1" style="stop-color:#FFFFFF"></stop>	</linearGradient>	<path style="fill:url(#SVGID_00000119814911952832355150000014341230653909395332_);fill-opacity:3.000000e-02;" d="M190.2,21.7  h-53.5c-9.8,0-17.8,8-17.8,17.8V93c0,9.8,8,17.8,17.8,17.8h53.5c9.8,0,17.8-8,17.8-17.8V39.5C208.1,29.7,200.1,21.7,190.2,21.7z"></path>	<path class="st4" d="M150.3,97.4V69.8l26.1,27.6H191v-0.7l-30-31.5l27.7-29.9v-0.4H174l-23.7,26.4V35.1h-11.8v62.4H150.3z"></path>	<path d="M236.8,97V69.5L262.7,97h14.4v-0.7l-29.8-31.3l27.5-29.7v-0.4h-14.5l-23.5,26.3V34.9h-11.7V97H236.8z M297.2,98.3  c6.7,0,14.1-2.4,18.8-7.1l-6.9-6.8c-2.6,2.6-7.7,4.1-11.7,4.1c-7.7,0-12.3-3.9-13-9.3h34.1c0.1-1.4,0.2-2.8,0.2-4.1  c0-15.3-8.8-23-22.2-23c-14.2,0-23.2,9.6-23.2,22.9C273.2,88.9,282.1,98.3,297.2,98.3z M308.1,70.2h-23.5c1.7-5.7,6.3-8.5,12.2-8.5  C303,61.7,307.4,64.5,308.1,70.2z M334,117V91.8c3.2,4.9,9.8,6.4,14.5,6.4c14,0,22-10.3,22-23.1c0-12.9-8.9-22.9-22.4-22.9  c-5,0-10.7,2-14.2,7l-0.7-6h-10.1V117H334z M347.4,87.6C340,87.6,335,82,335,75.1c0-6.8,4.6-12.4,12.4-12.4  c7.8,0,12.4,5.6,12.4,12.4C359.8,82,354.8,87.6,347.4,87.6z M386.6,97v-62h-10.7v62H386.6z M405.4,97V73.9  c0-8.2,5.2-11.1,10.9-11.1c3.5,0,5.6,1.2,7.8,2.8l4.9-9.4c-2.4-2.2-6.7-4.1-11.2-4.1c-4.3,0-9.1,0.8-12.3,6.1l-0.8-5.1h-10V97  H405.4z"></path></g></svg>