<svg xmlns="http://www.w3.org/2000/svg" xmlns:xlink="http://www.w3.org/1999/xlink" id="Layer_1" x="0px" y="0px" viewBox="0 0 547.9 138.7" style="enable-background:new 0 0 547.9 138.7;" xml:space="preserve"><style type="text/css">	.st0{clip-path:url(#SVGID_00000135682384360639830640000005595747281705014943_);}	.st1{fill:#212121;}	.st2{fill:#8247E5;}</style><g>	<defs>		<rect id="SVGID_1_" x="76.6" y="26" width="394.7" height="86.7"></rect>	</defs>	<clipPath id="SVGID_00000155115971873995974420000018079936862737071270_">		<use xlink:href="#SVGID_1_" style="overflow:visible;"></use>	</clipPath>	<g style="clip-path:url(#SVGID_00000155115971873995974420000018079936862737071270_);">		<path class="st1" d="M231,53.6c2.4,1.5,4.5,3.5,5.8,6.2c1.5,2.7,2.2,6,2.2,9.7c0,3.7-0.7,6.8-2.4,9.5c-1.5,2.7-3.7,4.8-6.5,6   c-2.8,1.5-6.1,2.2-9.7,2.2c-2,0-3.9-0.4-5.8-1.1c-1.9-0.5-3.5-1.6-4.8-2.9v19H199V52.1h9.3l0.9,4c4.1-3.3,8.6-4.9,13.2-4.9   C225.6,51.2,228.6,52,231,53.6z M225.1,76.3c1.9-1.6,2.8-3.8,2.8-6.6s-0.9-4.9-2.6-6.8c-1.7-1.8-3.9-2.6-6.3-2.6   c-2,0-3.9,0.4-5.4,1.3c-1.5,0.7-2.6,2-3.5,3.7v8.2c0.6,1.6,1.7,2.9,3,3.8c1.5,0.9,3.2,1.5,5.2,1.5C221,78.9,223.2,77.9,225.1,76.3   z"></path>		<path class="st1" d="M245.4,60c1.7-2.6,3.9-4.8,6.9-6.2c3-1.5,6.3-2.4,10.1-2.4s7.1,0.7,10.1,2.4c2.8,1.5,5,3.7,6.7,6.4   c1.7,2.7,2.4,5.7,2.4,9.1c0,3.5-0.7,6.4-2.4,9.1c-1.7,2.7-3.7,4.9-6.7,6.4c-2.8,1.5-6.3,2.4-10.1,2.4s-7.1-0.7-10.1-2.2   c-3-1.5-5.2-3.5-6.9-6.2c-1.5-2.7-2.4-5.9-2.4-9.5C242.9,65.9,243.9,62.8,245.4,60z M256.3,75.9c1.5,1.8,3.5,2.6,6,2.6   s4.5-0.9,6-2.6c1.5-1.6,2.2-4,2.2-6.6c0-2.7-0.7-4.9-2.2-6.6c-1.7-1.8-3.5-2.7-6.1-2.7c-2.4,0-4.3,0.9-6,2.6   c-1.5,1.8-2.2,4-2.2,6.8C253.9,71.9,254.7,74.1,256.3,75.9z"></path>		<path class="st1" d="M299,26.2v60.2h-10.8V26.2H299z"></path>		<path class="st1" d="M343.3,53.1l-22,49.4h-10.4l8.2-17.7l-15.6-31.7h12.3l8.9,19.8l8.9-19.8H343.3z"></path>		<path class="st1" d="M384.7,53.1v33.3c0,3.1-0.9,6-2.8,8.6c-1.9,2.6-4.3,4.6-7.5,6c-3.2,1.5-6.5,2.2-10.2,2.2   c-2.8,0-5.2-0.4-7.3-0.9c-2-0.7-3.7-1.5-5-2.2c-1.5-0.9-3-2-4.7-3.5l6.3-7.3c1.5,1.5,3.2,2.6,4.7,3.3c1.5,0.7,3.5,1.3,5.8,1.3   c2.8,0,5-0.7,6.9-2c1.9-1.3,2.8-3.3,2.8-5.7v-4.8c-1.1,1.6-2.6,3.1-4.8,4.2c-2.2,1.1-4.8,1.6-7.8,1.6s-6-0.7-8.6-2.4   c-2.6-1.5-4.7-3.7-6.3-6.4c-1.5-2.7-2.4-5.7-2.4-9c0-3.3,0.7-6.4,2.4-9.1c1.7-2.7,3.7-4.9,6.5-6.6c2.6-1.6,5.4-2.4,8.4-2.4   c2.8,0,5.2,0.4,7.5,1.1c2.2,0.7,3.9,1.8,5,3.1l1.1-2.6H384.7z M373.7,73.6v-8.2c-0.7-1.6-1.9-2.9-3.5-3.8   c-1.7-0.9-3.5-1.5-5.8-1.5c-2.6,0-4.8,0.9-6.7,2.6c-1.9,1.6-2.8,3.8-2.8,6.6c0,2.6,0.9,4.9,2.8,6.8c1.9,1.8,4.1,2.7,6.7,2.7   C368.7,78.5,371.8,76.8,373.7,73.6z"></path>		<path class="st1" d="M393.6,60c1.7-2.7,3.9-4.8,6.9-6.4c3-1.5,6.3-2.4,10.1-2.4s7.1,0.7,10.1,2.4c2.8,1.5,5,3.7,6.7,6.4   c1.5,2.7,2.4,5.7,2.4,9.1c0,3.5-0.7,6.4-2.4,9.1c-1.5,2.7-3.7,4.9-6.7,6.4c-2.8,1.5-6.3,2.4-10.1,2.4s-7.1-0.7-10.1-2.2   c-3-1.5-5.2-3.5-6.9-6.2c-1.7-2.7-2.4-5.9-2.4-9.7C391.2,65.9,392,62.8,393.6,60z M404.4,75.9c1.5,1.8,3.5,2.6,6,2.6   c2.4,0,4.5-0.9,6-2.6c1.5-1.6,2.2-4,2.2-6.6c0-2.7-0.7-4.9-2.2-6.6c-1.5-1.6-3.5-2.6-6-2.6c-2.4,0-4.3,0.9-6,2.6   c-1.7,1.6-2.4,4-2.4,6.6C402.2,71.9,403,74.1,404.4,75.9z"></path>		<path class="st1" d="M468,54.2c2.2,1.8,3.2,4.2,3.3,7.1v25.1h-11v-21c-0.2-3.3-1.9-4.9-5-4.9c-2.4,0-4.5,1.1-6,3.5   c-1.5,2.4-2.2,5.3-2.2,8.8v13.7h-10.8V53.1h9.9l0.7,5.3c1.3-2.2,3-3.8,5.2-5.1c2.2-1.3,4.8-1.8,7.8-1.8   C463.1,51.4,465.9,52.3,468,54.2z"></path>		<path class="st2" d="M152.8,52.5c-1.9-1.1-4.3-1.1-6.3,0l-14.5,8.4l-9.9,5.5l-14.5,8.4c-1.9,1.1-4.3,1.1-6.3,0l-11.5-6.6   c-1.9-1.1-3.2-3.1-3.2-5.3V50c0-2.2,1.1-4.2,3.2-5.3l11.4-6.4c1.9-1.1,4.3-1.1,6.3,0l11.4,6.4c1.9,1.1,3.2,3.1,3.2,5.3v8.4   l9.9-5.7v-8.4c0-2.2-1.1-4.2-3.2-5.3l-21-12.1c-1.9-1.1-4.3-1.1-6.3,0L79.8,39c-2,1.1-3.2,3.1-3.2,5.3v24.3c0,2.2,1.1,4.2,3.2,5.3   L101.2,86c1.9,1.1,4.3,1.1,6.3,0l14.5-8.2l9.9-5.7l14.5-8.2c1.9-1.1,4.3-1.1,6.3,0l11.4,6.4c1.9,1.1,3.2,3.1,3.2,5.3v13   c0,2.2-1.1,4.2-3.2,5.3l-11.4,6.6c-1.9,1.1-4.3,1.1-6.3,0l-11.4-6.4c-1.9-1.1-3.2-3.1-3.2-5.3v-8.4L122,86v8.4   c0,2.2,1.1,4.2,3.2,5.3l21.4,12.1c1.9,1.1,4.3,1.1,6.3,0l21.4-12.1c1.9-1.1,3.2-3.1,3.2-5.3V70.1c0-2.2-1.1-4.2-3.2-5.3   L152.8,52.5z"></path>	</g></g></svg>