<?xml version="1.0" encoding="utf-8"?>
<!-- Generator: Adobe Illustrator 24.2.0, SVG Export Plug-In . SVG Version: 6.00 Build 0)  -->
<svg version="1.1" id="Layer_1" xmlns="http://www.w3.org/2000/svg" xmlns:xlink="http://www.w3.org/1999/xlink" x="0px" y="0px"
	 viewBox="0 0 1000 1000" style="enable-background:new 0 0 1000 1000;" xml:space="preserve">
<style type="text/css">
	.st0{fill:#010101;}
	.st1{fill-rule:evenodd;clip-rule:evenodd;fill:#010101;}
	.st2{fill:url(#SVGID_1_);}
	.st3{fill:url(#SVGID_2_);}
	.st4{fill:url(#SVGID_3_);}
</style>
<g>
	<path class="st0" d="M373.2,507h29.6c4.2,0,7.5,3.4,7.5,7.6c0,4.2-3.4,7.6-7.5,7.6h-35.7c-0.6,0-1.1,0.2-1.5,0.6l-10.8,9.3
		c-1.7,1.4-0.7,4.1,1.5,4.1h44.7c0,0,0,0,0,0c0,0,0,0,0,0c0.6,0,1.1,0.1,1.7,0.1c11.9,0,21.5-9.7,21.5-21.6
		c0-11.3-8.7-20.6-19.7-21.5c0,0,0,0,0,0c0,0,0,0,0,0h-31.9c-4.2,0-7.5-3.4-7.5-7.6c0-4.2,3.4-7.6,7.5-7.6h35.7
		c0.6,0,1.2-0.2,1.6-0.6l10-9.3c1.6-1.5,0.5-4.1-1.6-4.1h-45.1c0,0,0,0,0,0c0,0,0,0,0,0c-0.2,0-0.4,0-0.6,0
		c-11.9,0-21.5,9.7-21.5,21.6c0,11.9,9.6,21.6,21.5,21.6C372.8,507,373,507,373.2,507C373.2,507,373.2,507,373.2,507
		C373.2,507,373.2,507,373.2,507z"/>
	<path class="st0" d="M545.7,463.8c-1.3,0-2.3,1.1-2.3,2.4v67.7c0,1.3,1,2.4,2.3,2.4H600c0.6,0,1.3-0.3,1.7-0.7l6.8-7.3
		c1.4-1.5,0.3-4-1.7-4h-47.4c-1.3,0-2.3-1.1-2.3-2.4v-55.7c0-1.3-1.1-2.4-2.3-2.4H545.7z"/>
	<path class="st1" d="M458.9,463.8C458.9,463.8,458.9,463.8,458.9,463.8C458.9,463.8,458.9,463.8,458.9,463.8
		c-6.9,0.3-12.5,5.9-12.8,12.8c0,0,0,0,0,0c0,0,0,0,0,0c0,0,0,0,0,0v45.5c0,0,0,0,0,0c0,0,0,0,0,0c0,0.2,0,0.4,0,0.6
		c0,7.2,5.7,13.1,12.8,13.4c0,0,0,0,0,0v0v0c0,0,0,0,0,0h49.2c0,0,0,0,0,0l0,0v0l0,0c7.1-0.3,12.8-6.2,12.8-13.4c0-0.2,0-0.4,0-0.6
		c0,0,0,0,0,0c0,0,0,0,0,0v-45.5c0,0,0,0,0,0c0,0,0,0,0,0c-0.3-6.9-5.9-12.5-12.8-12.8c0,0,0,0,0,0c0,0,0,0,0,0H458.9z M468,476.6
		L468,476.6L468,476.6C468,476.7,468,476.7,468,476.6c-4.3,0.2-7.8,3.7-8,8.1c0,0,0,0,0,0c0,0,0,0,0,0v28.6c0,0,0,0,0,0c0,0,0,0,0,0
		c0,0.1,0,0.2,0,0.4c0,4.5,3.6,8.2,8,8.4c0,0,0,0,0,0v0l0,0v0h30.9v0l0,0v0c0,0,0,0,0,0c4.5-0.2,8-3.9,8-8.4c0-0.1,0-0.2,0-0.4v0v0
		l0,0c0,0,0,0,0,0v-28.6c0,0,0,0,0,0c0,0,0,0,0,0c-0.2-4.4-3.7-7.9-8-8.1c0,0,0,0,0,0v0l0,0v0H468z"/>
	<path class="st1" d="M687.4,533.8c0,1.3,1,2.4,2.3,2.4h9.2c1.3,0,2.3-1.1,2.3-2.4v-56c0,0,0,0,0,0v0l0,0c0,0,0,0,0,0
		c0-0.2,0-0.4,0-0.6c0-7.2-5.6-13.1-12.7-13.4c0,0,0,0,0,0c0,0,0,0,0,0h-47.2c0,0,0,0,0,0c0,0,0,0,0,0c-0.2,0-0.4,0-0.6,0
		c-7.3,0-13.3,6-13.3,13.4c0,0.2,0,0.4,0,0.6c0,0,0,0,0,0s0,0,0,0v56c0,1.3,1,2.4,2.3,2.4h9.2c1.3,0,2.3-1.1,2.3-2.4v-23.3
		c0-1.3,1-2.4,2.3-2.4H685c1.3,0,2.3,1.1,2.3,2.4V533.8z M641.3,495.3v-11.7c0-4.5,3.6-8.2,8.1-8.2h30c4.5,0,8.1,3.7,8.1,8.2v11.7
		c0,1.3-1,2.4-2.3,2.4h-41.5C642.3,497.7,641.3,496.6,641.3,495.3z"/>
	<path class="st1" d="M881.5,536.2c-1.3,0-2.3-1.1-2.3-2.4v-23.3c0-1.3-1-2.4-2.3-2.4h-41.9c-1.3,0-2.3,1.1-2.3,2.4v23.3
		c0,1.3-1.1,2.4-2.3,2.4h-9.3c-1.3,0-2.3-1.1-2.3-2.4v-56v0l0,0c0,0,0,0,0,0c0,0,0,0,0,0c0-0.2,0-0.4,0-0.6c0-7.4,6-13.4,13.4-13.4
		c0.2,0,0.4,0,0.6,0c0,0,0,0,0,0c0,0,0,0,0,0h47.8c0,0,0,0,0,0c0,0,0,0,0,0c7.1,0.3,12.8,6.2,12.8,13.4c0,0.2,0,0.4,0,0.6
		c0,0,0,0,0,0c0,0,0,0,0,0c0,0,0,0,0,0v56c0,1.3-1.1,2.4-2.3,2.4H881.5z M832.6,483.7v11.7c0,1.3,1,2.4,2.3,2.4h41.9
		c1.3,0,2.3-1.1,2.3-2.4v-11.7c0-4.5-3.6-8.2-8.2-8.2h-30.3C836.2,475.5,832.6,479.1,832.6,483.7z"/>
	<path class="st0" d="M735.8,463.8c0.7,0,1.3,0.3,1.8,0.8l41.3,49.2c1.4,1.7,4.1,0.7,4.1-1.5v-46.1c0-1.3,1-2.4,2.3-2.4h9.2
		c1.3,0,2.3,1.1,2.3,2.4v67.7c0,1.3-1,2.4-2.3,2.4H783c-0.1,0-0.1,0-0.1-0.1c0,0,0,0,0-0.1l-42-48.8c-1.4-1.6-4.1-0.6-4.1,1.6v45.1
		c0,1.3-1,2.4-2.3,2.4h-9.3c-1.3,0-2.3-1.1-2.3-2.4v-67.7c0-1.3,1-2.4,2.3-2.4H735.8z"/>
	
		<linearGradient id="SVGID_1_" gradientUnits="userSpaceOnUse" x1="276.9322" y1="593.1121" x2="173.3854" y2="394.7785" gradientTransform="matrix(1 0 0 -1 0 1002)">
		<stop  offset="0" style="stop-color:#70C48E"/>
		<stop  offset="1" style="stop-color:#A253A0"/>
	</linearGradient>
	<path class="st2" d="M137.3,538.7c1.1-1.1,2.7-1.8,4.3-1.8h149.6c2.7,0,4.1,3.3,2.2,5.2l-29.6,29.5c-1.1,1.1-2.7,1.8-4.3,1.8H109.9
		c-2.7,0-4.1-3.3-2.2-5.2L137.3,538.7z"/>
	
		<linearGradient id="SVGID_2_" gradientUnits="userSpaceOnUse" x1="231.6559" y1="616.7501" x2="128.1091" y2="418.4166" gradientTransform="matrix(1 0 0 -1 0 1002)">
		<stop  offset="0" style="stop-color:#70C48E"/>
		<stop  offset="1" style="stop-color:#A253A0"/>
	</linearGradient>
	<path class="st3" d="M137.3,428.3c1.1-1.1,2.7-1.8,4.3-1.8h149.6c2.7,0,4.1,3.3,2.2,5.2l-29.6,29.5c-1.1,1.1-2.7,1.8-4.3,1.8H109.9
		c-2.7,0-4.1-3.3-2.2-5.2L137.3,428.3z"/>
	
		<linearGradient id="SVGID_3_" gradientUnits="userSpaceOnUse" x1="254.15" y1="605.0063" x2="150.6032" y2="406.6728" gradientTransform="matrix(1 0 0 -1 0 1002)">
		<stop  offset="0" style="stop-color:#70C48E"/>
		<stop  offset="1" style="stop-color:#A253A0"/>
	</linearGradient>
	<path class="st4" d="M263.8,483.2c-1.1-1.1-2.7-1.8-4.3-1.8H109.9c-2.7,0-4.1,3.3-2.2,5.2l29.6,29.5c1.1,1.1,2.7,1.8,4.3,1.8h149.6
		c2.7,0,4.1-3.3,2.2-5.2L263.8,483.2z"/>
</g>
</svg>
