<svg xmlns="http://www.w3.org/2000/svg" xmlns:xlink="http://www.w3.org/1999/xlink" id="Layer_1" x="0px" y="0px" viewBox="0 0 547.9 138.7" style="enable-background:new 0 0 547.9 138.7;" xml:space="preserve"><style type="text/css">	.st0{fill-rule:evenodd;clip-rule:evenodd;fill:#0E3CA5;}	.st1{fill-rule:evenodd;clip-rule:evenodd;fill:#5493F7;}</style><g>	<path class="st0" d="M366.5,50.2c-0.4,0-1.2-0.1-2.9-0.1c-1.5,0-2.8,0.1-4.1,0.4c-5.3,1-8.7,3.9-11.6,7v-6.1h-16.6v53.9H348V82.8  c0-2.6,0.1-5.1,0.4-7.3c0.3-2.2,0.9-4.1,2-5.7c1-1.6,2.4-2.8,4.3-3.7c1.8-0.9,4.3-1.3,7.5-1.3c2.4,0,4.8,0.4,7.1,1.1V50.6  C368.4,50.4,367.5,50.2,366.5,50.2 M410.2,50.2c-0.4,0-1.2-0.1-2.9-0.1c-1.5,0-2.8,0.1-4.1,0.4c-5.3,1-8.7,3.9-11.6,7v-6.1H375  v53.9h16.6V82.8c0-2.6,0.1-5.1,0.4-7.3c0.3-2.2,0.9-4.1,2-5.7c1-1.6,2.4-2.8,4.3-3.7c1.8-0.9,4.3-1.3,7.5-1.3  c2.4,0,4.8,0.4,7.1,1.1V50.6C412,50.4,411.1,50.2,410.2,50.2 M237.1,47.6h-22V32.6h61.1v14.9h-22v54.8h-17V47.6z M308.9,71.7  c0.1-2.6-0.9-5.2-2.8-7c-1.9-2-4.4-2.9-7.4-2.9c-1.8,0-3.5,0.3-4.9,0.9c-1.3,0.6-2.6,1.3-3.6,2.2c-1,0.9-1.8,2-2.3,3.1  c-0.6,1.2-0.9,2.4-0.9,3.7C287,71.7,308.9,71.7,308.9,71.7z M323,94.9c-2.7,3.4-6.2,6-10.1,7.7c-4,1.8-8.3,2.7-12.7,2.7  c-4,0-8-0.6-11.7-2c-3.5-1.2-6.7-3.1-9.5-5.6c-2.7-2.4-4.9-5.4-6.4-8.8c-1.5-3.4-2.3-7.2-2.3-11.4c0-4.2,0.8-8,2.3-11.4  c1.5-3.3,3.7-6.3,6.4-8.8c2.8-2.4,6.1-4.3,9.5-5.6c3.7-1.3,7.7-2,11.7-2c3.9,0,7.3,0.7,10.5,2c3.1,1.3,5.8,3.2,8,5.6  c2.2,2.4,3.9,5.3,5.1,8.8c1.2,3.4,1.8,7.2,1.8,11.4v5.1H287c0.7,3.1,2.1,5.6,4.3,7.4c2.2,1.8,5,2.8,8.2,2.8c2.8,0,5.1-0.6,6.9-1.8  c1.9-1.2,3.6-2.8,5-4.6C311.4,86.5,323,94.9,323,94.9z M450.8,85.4v-0.9c0-1.2-0.7-2.1-1.8-2.5c-2.6-0.9-5.3-1.3-8-1.3  c-6.5,0-10.5,2.6-10.5,7.4v0.2c0,4.1,3.4,6.5,8.3,6.5C446,94.8,450.8,90.9,450.8,85.4 M415.7,88.9v-0.2c0-11.7,8.9-17.1,21.7-17.1  c5.4,0,9.4,0.9,13.2,2.2v-0.9c0-6.3-3.9-9.8-11.5-9.8c-5.8,0-9.9,1.1-14.9,2.9l-3.8-11.6c5.9-2.6,11.8-4.3,20.9-4.3  c8.3,0,14.3,2.2,18.2,6c4,4,5.8,9.9,5.8,17.1v31.2h-14.8v-5.8c-3.7,4.1-8.8,6.8-16.3,6.8C424.1,105.3,415.7,99.5,415.7,88.9   M130.4,99c2.8,10.9,13.1,19.3,18.3,19c0.2,0,19.7-3.8,30.4-22.2c8.3-14.4,5.5-28.1-5.8-28.5C169.3,67.6,125,78.1,130.4,99   M140.3,16.6c-7.4,0-14.4,1.6-20.7,4.4c-1.1,0.5-2.2,1-3.2,1.6c-0.7,0.4-1.4,0.8-2.1,1.2l0.1,0.1c-2.1,1.4-3.9,3.1-5.4,5.1  c-14.6,19.4,34.4,33.5,60.7,33.5c12.1,8.7,15.5-24.4,3.7-33.7C164.1,21,152.4,16.6,140.3,16.6z"></path>	<path class="st1" d="M121.9,28c-6.6,9.7-28.7,16.6-32.4,15.6v-0.1l0.4-0.9c3.8-7.1,9.2-13.3,15.8-18c1.3-1,2.8-1.9,4.2-2.8  c3.1-1.8,6.3-1.8,7.3-1.9C127,20.2,121.9,27.9,121.9,28"></path>	<g transform="translate(0 8.197)">		<path class="st1" d="M116.2,92.8c0.5,3.2,0,15.8-0.7,16.9c-0.6,0-1.8,0.1-5.2-1.8c-6.7-3.8-12.5-8.9-17.1-15.1   c-3.3-4.5-6-9.5-7.8-14.8c-1.8-5.5-2.8-11.3-2.8-17.1c0-6.4,1.1-12.7,3.3-18.7l0,0c4,5.2,8.5,9.9,12.4,15.1   c3.7,5,8.8,13.1,9.8,14.8C114.8,82.9,115.7,89.6,116.2,92.8"></path>	</g>	<path class="st1" d="M190.8,69.7c0,6.9-1.3,13.5-3.7,19.6c-6.3,6.7-48.5-9.9-48.9-10c-5.8-2.6-23.4-10.3-25-22.4  c-2.3-17.5,33-29.6,48.5-30.1c1.8,0,7.5,0.1,10.8,2.8C184.2,39.6,190.8,54.3,190.8,69.7 M153.8,112.9c2.6-9,24.6-18.1,29.5-18.6  c0.6-0.1,0.9,0.4,0.6,0.9c-5.1,9.2-12.6,16.8-21.7,21.8C157.6,119.1,152.5,117.5,153.8,112.9z"></path></g></svg>