<?xml version="1.0" ?><svg viewBox="0 0 32 32" xmlns="http://www.w3.org/2000/svg"><defs><style>.cls-1{fill:#010101;}</style></defs><title/><g id="Medium"><path class="cls-1" d="M29,26.5H19.37a1,1,0,0,1-.92-.62,1,1,0,0,1,.22-1.09l1.63-1.61V18L16.39,25a1,1,0,0,1-.87.52h0a1,1,0,0,1-.87-.52L8.81,14.25v7l3.56,3.51a1,1,0,0,1,.22,1.09,1,1,0,0,1-.92.62H3a1,1,0,0,1-.93-.62,1,1,0,0,1,.23-1.09l1.89-1.85a1,1,0,0,1,1.4,1.42l-.14.14H9.23L7.11,22.41a1,1,0,0,1-.3-.71v-11L3.26,7.21A1,1,0,0,1,3,6.12,1,1,0,0,1,4,5.5h6.71a1,1,0,0,1,.87.51l4.94,8.88L21.38,6a1,1,0,0,1,.88-.52H29a1,1,0,0,1,.93.62,1,1,0,0,1-.23,1.09L28.07,8.82V23.18l1.63,1.61a1,1,0,0,1,.23,1.09A1,1,0,0,1,29,26.5Zm-7.19-2h4.75l-.19-.19a1,1,0,0,1-.3-.71V8.4a1,1,0,0,1,.3-.71l.19-.19H22.85l-5.49,9.93a1,1,0,0,1-.88.52h0a1,1,0,0,1-.87-.51L10.08,7.5H6.4L8.5,9.57a1.12,1.12,0,0,1,.19.24h0v0l6.83,12.64,4.89-8.85a1,1,0,0,1,1.88.48v9.5a1,1,0,0,1-.3.71Z"/></g></svg>