<svg width="40" height="42" viewBox="0 0 40 42" fill="none" xmlns="http://www.w3.org/2000/svg">
<path d="M22.3706 25.5312C22.3706 24.2422 21.3159 23.1875 20.0268 23.1875C18.7085 23.1875 17.6831 24.2422 17.6831 25.5312C17.6831 26.8496 18.7085 27.875 20.0268 27.875C21.3159 27.875 22.3706 26.8496 22.3706 25.5312ZM17.9468 13.6367L18.3276 21.6055C18.3569 21.957 18.6792 22.25 19.0307 22.25H20.9936C21.3452 22.25 21.6675 21.957 21.6968 21.6055L22.0776 13.6367C22.1069 13.2266 21.7846 12.875 21.3745 12.875H18.6499C18.2397 12.875 17.9175 13.2266 17.9468 13.6367Z" fill="#F04438"/>
<path d="M16.9331 5.5777C18.2627 3.15954 21.7373 3.15954 23.0669 5.5777L34.4687 26.3136C35.7513 28.6462 34.0637 31.5 31.4018 31.5H8.5982C5.93626 31.5 4.24868 28.6462 5.53126 26.3136L16.9331 5.5777Z" stroke="#F04438" stroke-width="3"/>
</svg>
